<svg xmlns="http://www.w3.org/2000/svg" xml:space="preserve" width="19" height="20"><path fill="#4071b6" fill-rule="evenodd" d="M9.293 10.857h1.25a.362.362 0 0 0 .266-.109.36.36 0 0 0 .109-.266v-1.25a.364.364 0 0 0-.109-.266.36.36 0 0 0-.266-.109h-1.25a.362.362 0 0 0-.266.109.368.368 0 0 0-.109.266v1.25c0 .104.036.192.109.266a.364.364 0 0 0 .266.109zm3 3h1.25a.362.362 0 0 0 .266-.109.36.36 0 0 0 .109-.266v-1.25a.364.364 0 0 0-.109-.266.36.36 0 0 0-.266-.109h-1.25a.364.364 0 0 0-.266.109.365.365 0 0 0-.109.266v1.25c0 .104.037.192.109.266a.364.364 0 0 0 .266.109zm0-3h1.25a.362.362 0 0 0 .266-.109.36.36 0 0 0 .109-.266v-1.25a.364.364 0 0 0-.109-.266.36.36 0 0 0-.266-.109h-1.25a.364.364 0 0 0-.266.109.365.365 0 0 0-.109.266v1.25c0 .104.037.192.109.266a.364.364 0 0 0 .266.109zm-6 3h1.25a.364.364 0 0 0 .266-.109.36.36 0 0 0 .109-.266v-1.25a.368.368 0 0 0-.109-.266.362.362 0 0 0-.266-.109h-1.25a.362.362 0 0 0-.266.109.36.36 0 0 0-.109.266v1.25c0 .104.036.192.109.266a.364.364 0 0 0 .266.109zm3 0h1.25a.362.362 0 0 0 .266-.109.36.36 0 0 0 .109-.266v-1.25a.364.364 0 0 0-.109-.266.36.36 0 0 0-.266-.109h-1.25a.362.362 0 0 0-.266.109.36.36 0 0 0-.109.266v1.25c0 .104.036.192.109.266a.364.364 0 0 0 .266.109zm7.187-9.562a1.445 1.445 0 0 0-1.063-.438h-1.5V2.232a.364.364 0 0 0-.109-.266.36.36 0 0 0-.266-.109h-1.25a.364.364 0 0 0-.266.109.365.365 0 0 0-.109.266v1.625h-4V2.232a.368.368 0 0 0-.109-.266.362.362 0 0 0-.265-.109h-1.25a.362.362 0 0 0-.266.109.368.368 0 0 0-.109.266v1.625h-1.5c-.417 0-.771.146-1.063.438a1.448 1.448 0 0 0-.437 1.062v11c0 .417.146.771.438 1.063.292.292.646.438 1.063.438h11c.417 0 .771-.146 1.063-.438.292-.292.438-.646.438-1.063v-11a1.454 1.454 0 0 0-.44-1.062zM15.418 16.17c0 .042-.021.083-.063.125-.041.042-.083.063-.125.063H4.606c-.042 0-.083-.021-.125-.063-.042-.042-.063-.083-.063-.125V6.857h11v9.313zm-9.125-5.313h1.25a.364.364 0 0 0 .266-.109.36.36 0 0 0 .109-.266v-1.25a.368.368 0 0 0-.109-.266.366.366 0 0 0-.266-.109h-1.25a.362.362 0 0 0-.266.109.368.368 0 0 0-.109.266v1.25c0 .104.036.192.109.266a.364.364 0 0 0 .266.109z" clip-rule="evenodd"/></svg>