<svg height="91" width="91" xml:space="preserve" xmlns="http://www.w3.org/2000/svg"><path d="M88.3 34.924a3.34 3.34 0 0 0-4.724 0L40.378 78.117c-3.561 3.561-8.238 5.568-13.175 5.652-4.922.104-9.454-1.732-12.843-5.121-7.027-7.027-6.789-18.701.529-26.02.01-.01.016-.021.026-.032L55.934 11.58c4.5-4.492 11.817-4.49 16.319.009 4.503 4.504 4.503 11.832 0 16.336l-.013.016L30.501 69.68l-.004.005a4.815 4.815 0 0 1-6.789-.005 4.769 4.769 0 0 1-1.41-3.396c0-1.281.498-2.482 1.4-3.388l.014-.011 37.43-37.438c1.304-1.305 1.304-3.418-.001-4.723s-3.419-1.305-4.724 0l-37.41 37.418c-.007.007-.016.011-.021.018-2.172 2.168-3.367 5.055-3.367 8.123s1.195 5.951 3.369 8.125a11.458 11.458 0 0 0 8.118 3.352 11.453 11.453 0 0 0 8.118-3.354c.005-.005.008-.011.014-.016l41.736-41.735.005-.005.009-.01.711-.711c.182-.181.331-.38.462-.588 5.896-7.155 5.505-17.787-1.183-24.477C70.288.178 59.66-.21 52.509 5.683a3.339 3.339 0 0 0-.588.462L10.163 47.904c-.01.009-.015.02-.023.029C.243 57.859.017 73.748 9.638 83.371c4.578 4.578 10.683 7.084 17.235 7.084.148 0 .297-.004.445-.006 6.677-.113 12.993-2.816 17.784-7.609.004-.003.006-.008.009-.011L88.3 39.646a3.339 3.339 0 0 0 0-4.722z" fill="#000"/></svg>